<svg width="306" height="148" viewBox="0 0 306 148" fill="none" xmlns="http://www.w3.org/2000/svg">
<g filter="url(#filter0_d_1005_15394)">
<path d="M125.808 7.705C126.177 7.705 126.469 7.8025 126.686 7.9975C126.924 8.1925 127.065 8.485 127.108 8.875V10.2075C127.108 10.5758 127 10.8792 126.783 11.1175C126.567 11.3558 126.242 11.475 125.808 11.475H110.728V54.7975C110.728 55.5992 110.327 56 109.526 56H108.193C107.392 56 106.991 55.5992 106.991 54.7975V11.475H91.7808C91.0008 11.475 90.6108 11.0525 90.6108 10.2075V8.875C90.6108 8.50666 90.7083 8.225 90.9033 8.03C91.1199 7.81333 91.4124 7.705 91.7808 7.705H125.808ZM169.388 8.875C169.388 8.52833 169.496 8.24666 169.713 8.03C169.929 7.81333 170.222 7.705 170.59 7.705H172.215C172.584 7.705 172.887 7.81333 173.125 8.03C173.364 8.225 173.483 8.50666 173.483 8.875V54.83C173.483 55.61 173.06 56 172.215 56H170.59C169.789 56 169.388 55.61 169.388 54.83V33.315H138.285V54.83C138.285 55.61 137.874 56 137.05 56H135.425C134.624 56 134.223 55.61 134.223 54.83V8.875C134.223 8.52833 134.331 8.24666 134.548 8.03C134.764 7.81333 135.057 7.705 135.425 7.705H137.083C137.451 7.705 137.744 7.81333 137.96 8.03C138.177 8.24666 138.285 8.52833 138.285 8.875V29.22H169.388V8.875ZM216.426 7.705C217.25 7.705 217.661 8.11666 217.661 8.94V10.565C217.661 10.9333 217.553 11.2367 217.336 11.475C217.141 11.6917 216.827 11.8 216.394 11.8H188.021V28.7325H210.836C211.205 28.7325 211.497 28.83 211.714 29.025C211.952 29.1983 212.071 29.5017 212.071 29.935V31.5925C212.071 31.9608 211.963 32.2533 211.746 32.47C211.551 32.6867 211.248 32.795 210.836 32.795H188.021V51.9375H216.816C217.64 51.9375 218.051 52.3383 218.051 53.14V54.83C218.051 55.61 217.651 56 216.849 56H184.966C184.663 56 184.414 55.9133 184.219 55.74C184.024 55.545 183.926 55.2525 183.926 54.8625V8.9075C183.926 8.47416 184.035 8.17083 184.251 7.9975C184.468 7.8025 184.761 7.705 185.129 7.705H216.426Z" fill="#3D405B"/>
</g>
<g filter="url(#filter1_d_1005_15394)">
<path d="M72.1267 74.9625C72.1267 74.5125 72.2642 74.125 72.5392 73.8C72.8142 73.475 73.2267 73.3125 73.7767 73.3125H81.2392C81.6642 73.3125 82.0642 73.4625 82.4392 73.7625C82.8142 74.0625 83.0017 74.4625 83.0017 74.9625V127.35C83.0017 128.45 82.4142 129 81.2392 129H73.7767C72.6767 129 72.1267 128.45 72.1267 127.35V74.9625ZM130.598 88.1625C130.273 88.1625 129.973 88.0875 129.698 87.9375C129.423 87.7625 129.11 87.5375 128.76 87.2625L128.685 87.225C128.21 86.75 127.598 86.225 126.848 85.65C126.098 85.075 125.26 84.5375 124.335 84.0375C123.41 83.5375 122.41 83.1125 121.335 82.7625C120.285 82.4125 119.21 82.2375 118.11 82.2375C116.71 82.2375 115.473 82.4 114.398 82.725C113.323 83.025 112.423 83.45 111.698 84C110.973 84.525 110.423 85.15 110.048 85.875C109.673 86.6 109.485 87.375 109.485 88.2C109.485 89.1 109.76 89.8875 110.31 90.5625C110.885 91.2375 111.648 91.8375 112.598 92.3625C113.573 92.8875 114.685 93.375 115.935 93.825C117.185 94.25 118.498 94.675 119.873 95.1C121.448 95.575 123.01 96.0875 124.56 96.6375C126.11 97.1875 127.585 97.8125 128.985 98.5125C130.41 99.1875 131.735 99.95 132.96 100.8C134.185 101.625 135.235 102.587 136.11 103.687C137.01 104.762 137.71 105.975 138.21 107.325C138.735 108.65 138.998 110.15 138.998 111.825C138.998 114.55 138.448 117.012 137.348 119.212C136.248 121.412 134.723 123.3 132.773 124.875C130.848 126.425 128.573 127.625 125.948 128.475C123.348 129.3 120.548 129.713 117.548 129.713C115.623 129.713 113.71 129.488 111.81 129.038C109.91 128.587 108.085 127.95 106.335 127.125C104.585 126.3 102.923 125.312 101.348 124.162C99.7979 122.987 98.4104 121.675 97.1854 120.225V120.262L97.1104 120.112C96.5604 119.487 96.2854 118.912 96.2854 118.387C96.2854 118.112 96.3604 117.85 96.5104 117.6C96.6604 117.35 96.8854 117.075 97.1854 116.775L98.4229 115.537C98.7979 115.212 99.1979 114.85 99.6229 114.45C100.048 114.05 100.473 113.687 100.898 113.362C101.323 113.037 101.71 112.762 102.06 112.537C102.435 112.312 102.735 112.2 102.96 112.2C103.31 112.2 103.635 112.312 103.935 112.537C104.235 112.762 104.485 112.975 104.685 113.175L104.835 113.325H104.798C105.673 114.15 106.648 114.937 107.723 115.687C108.823 116.437 109.948 117.112 111.098 117.712C112.248 118.287 113.385 118.75 114.51 119.1C115.66 119.425 116.735 119.587 117.735 119.587C119.11 119.587 120.398 119.412 121.598 119.062C122.798 118.712 123.835 118.225 124.71 117.6C125.585 116.95 126.273 116.175 126.773 115.275C127.273 114.375 127.523 113.375 127.523 112.275C127.523 111.175 127.198 110.237 126.548 109.462C125.898 108.662 125.048 107.975 123.998 107.4C122.948 106.8 121.76 106.287 120.435 105.862C119.135 105.437 117.823 105.037 116.498 104.662C113.448 103.737 110.773 102.737 108.473 101.662C106.198 100.587 104.298 99.3875 102.773 98.0625C101.248 96.7125 100.098 95.2125 99.3229 93.5625C98.5729 91.8875 98.1979 90.0125 98.1979 87.9375C98.1979 85.6125 98.6604 83.5 99.5854 81.6C100.535 79.675 101.873 78.0375 103.598 76.6875C105.323 75.3125 107.398 74.25 109.823 73.5C112.248 72.725 114.96 72.3375 117.96 72.3375C120.235 72.3375 122.548 72.7 124.898 73.425C127.248 74.125 129.423 75.1 131.423 76.35C132.023 76.725 132.635 77.15 133.26 77.625C133.885 78.1 134.46 78.5875 134.985 79.0875C135.51 79.5625 135.935 80.0375 136.26 80.5125C136.61 80.9625 136.785 81.35 136.785 81.675C136.785 81.975 136.71 82.2875 136.56 82.6125C136.41 82.9125 136.223 83.1875 135.998 83.4375L134.873 84.6375V84.6C134.498 85 134.11 85.4125 133.71 85.8375C133.31 86.2625 132.91 86.65 132.51 87C132.11 87.325 131.748 87.6 131.423 87.825C131.098 88.05 130.823 88.1625 130.598 88.1625ZM152.21 74.9625C152.21 74.5125 152.347 74.125 152.622 73.8C152.897 73.475 153.31 73.3125 153.86 73.3125H161.322C161.747 73.3125 162.147 73.4625 162.522 73.7625C162.897 74.0625 163.085 74.4625 163.085 74.9625V127.35C163.085 128.45 162.497 129 161.322 129H153.86C152.76 129 152.21 128.45 152.21 127.35V74.9625ZM187.618 101.137C187.618 103.662 188.068 106.025 188.968 108.225C189.893 110.425 191.143 112.337 192.718 113.962C194.318 115.587 196.193 116.875 198.343 117.825C200.518 118.775 202.868 119.25 205.393 119.25C207.893 119.25 210.218 118.775 212.368 117.825C214.543 116.875 216.431 115.587 218.031 113.962C219.631 112.337 220.881 110.425 221.781 108.225C222.706 106.025 223.168 103.662 223.168 101.137C223.168 98.6375 222.706 96.2875 221.781 94.0875C220.881 91.8875 219.631 89.975 218.031 88.35C216.431 86.7 214.543 85.4 212.368 84.45C210.218 83.5 207.893 83.025 205.393 83.025C202.868 83.025 200.518 83.5 198.343 84.45C196.193 85.4 194.318 86.7 192.718 88.35C191.143 89.975 189.893 91.8875 188.968 94.0875C188.068 96.2875 187.618 98.6375 187.618 101.137ZM176.781 101.212C176.781 98.5875 177.118 96.05 177.793 93.6C178.468 91.15 179.431 88.8625 180.681 86.7375C181.931 84.6125 183.418 82.675 185.143 80.925C186.893 79.175 188.831 77.6875 190.956 76.4625C193.081 75.2125 195.356 74.25 197.781 73.575C200.231 72.875 202.781 72.525 205.431 72.525C208.056 72.525 210.581 72.875 213.006 73.575C215.456 74.25 217.743 75.2125 219.868 76.4625C221.993 77.6875 223.931 79.175 225.681 80.925C227.431 82.675 228.918 84.6125 230.143 86.7375C231.393 88.8625 232.356 91.15 233.031 93.6C233.731 96.05 234.081 98.6 234.081 101.25C234.081 103.9 233.731 106.437 233.031 108.862C232.356 111.287 231.393 113.562 230.143 115.687C228.918 117.812 227.431 119.75 225.681 121.5C223.931 123.225 221.993 124.712 219.868 125.962C217.743 127.187 215.456 128.137 213.006 128.812C210.581 129.488 208.043 129.825 205.393 129.825C202.743 129.825 200.193 129.488 197.743 128.812C195.318 128.137 193.043 127.175 190.918 125.925C188.793 124.675 186.856 123.187 185.106 121.462C183.381 119.712 181.893 117.787 180.643 115.687C179.418 113.562 178.468 111.287 177.793 108.862C177.118 106.412 176.781 103.862 176.781 101.212ZM247.674 75C247.674 74.525 247.811 74.125 248.086 73.8C248.386 73.475 248.799 73.3125 249.324 73.3125H257.949C258.299 73.3125 258.624 73.4 258.924 73.575C259.249 73.725 259.536 73.975 259.786 74.325C264.061 80.425 268.299 86.4875 272.499 92.5125C276.699 98.5125 280.936 104.562 285.211 110.662V74.7375C285.286 74.2875 285.474 73.9375 285.774 73.6875C286.074 73.4375 286.436 73.3125 286.861 73.3125H294.099C294.599 73.3125 295.024 73.4625 295.374 73.7625C295.749 74.0625 295.936 74.4625 295.936 74.9625V127.462C295.936 128.487 295.349 129 294.174 129H286.036C285.486 129 284.974 128.662 284.499 127.987C280.099 121.612 275.711 115.25 271.336 108.9C266.986 102.525 262.624 96.1375 258.249 89.7375V127.35C258.249 127.9 258.111 128.312 257.836 128.587C257.586 128.862 257.149 129 256.524 129H249.324C248.749 129 248.324 128.862 248.049 128.587C247.799 128.287 247.674 127.887 247.674 127.387V75Z" fill="#3D405B"/>
</g>
<g filter="url(#filter2_d_1005_15394)">
<path d="M59.3709 60.2087L55.4205 55.6069C53.4733 53.3418 52.3416 53.368 50.6744 56.3484L21.9622 107.633L8.60031 91.5651C6.75689 89.3239 5.60372 89.4431 4.08813 92.1851L1.03883 97.9313C-0.50806 100.75 -0.310375 102.35 1.51822 104.56L20.5619 127.359C22.5223 129.743 23.6261 129.498 25.1417 126.83L59.8668 67.0756C61.4977 64.2382 61.3989 62.5429 59.3709 60.2087Z" fill="#3D405B"/>
</g>
<defs>
<filter id="filter0_d_1005_15394" x="90.6108" y="7.70502" width="137.441" height="58.295" filterUnits="userSpaceOnUse" color-interpolation-filters="sRGB">
<feFlood flood-opacity="0" result="BackgroundImageFix"/>
<feColorMatrix in="SourceAlpha" type="matrix" values="0 0 0 0 0 0 0 0 0 0 0 0 0 0 0 0 0 0 127 0" result="hardAlpha"/>
<feOffset dx="5" dy="5"/>
<feGaussianBlur stdDeviation="2.5"/>
<feComposite in2="hardAlpha" operator="out"/>
<feColorMatrix type="matrix" values="0 0 0 0 0.239216 0 0 0 0 0.25098 0 0 0 0 0.356863 0 0 0 0.25 0"/>
<feBlend mode="normal" in2="BackgroundImageFix" result="effect1_dropShadow_1005_15394"/>
<feBlend mode="normal" in="SourceGraphic" in2="effect1_dropShadow_1005_15394" result="shape"/>
</filter>
<filter id="filter1_d_1005_15394" x="72.1267" y="72.3375" width="233.809" height="67.4875" filterUnits="userSpaceOnUse" color-interpolation-filters="sRGB">
<feFlood flood-opacity="0" result="BackgroundImageFix"/>
<feColorMatrix in="SourceAlpha" type="matrix" values="0 0 0 0 0 0 0 0 0 0 0 0 0 0 0 0 0 0 127 0" result="hardAlpha"/>
<feOffset dx="5" dy="5"/>
<feGaussianBlur stdDeviation="2.5"/>
<feComposite in2="hardAlpha" operator="out"/>
<feColorMatrix type="matrix" values="0 0 0 0 0.239216 0 0 0 0 0.25098 0 0 0 0 0.356863 0 0 0 0.25 0"/>
<feBlend mode="normal" in2="BackgroundImageFix" result="effect1_dropShadow_1005_15394"/>
<feBlend mode="normal" in="SourceGraphic" in2="effect1_dropShadow_1005_15394" result="shape"/>
</filter>
<filter id="filter2_d_1005_15394" x="0" y="54" width="71" height="85" filterUnits="userSpaceOnUse" color-interpolation-filters="sRGB">
<feFlood flood-opacity="0" result="BackgroundImageFix"/>
<feColorMatrix in="SourceAlpha" type="matrix" values="0 0 0 0 0 0 0 0 0 0 0 0 0 0 0 0 0 0 127 0" result="hardAlpha"/>
<feOffset dx="5" dy="5"/>
<feGaussianBlur stdDeviation="2.5"/>
<feComposite in2="hardAlpha" operator="out"/>
<feColorMatrix type="matrix" values="0 0 0 0 0.239216 0 0 0 0 0.25098 0 0 0 0 0.356863 0 0 0 0.25 0"/>
<feBlend mode="normal" in2="BackgroundImageFix" result="effect1_dropShadow_1005_15394"/>
<feBlend mode="normal" in="SourceGraphic" in2="effect1_dropShadow_1005_15394" result="shape"/>
</filter>
</defs>
</svg>
