<svg width="304" height="71" viewBox="0 0 304 71" fill="none" xmlns="http://www.w3.org/2000/svg">
<path d="M1 32.25H303" stroke="#A1BBCE" stroke-linecap="round"/>
<path d="M8.3032 10.76C8.8032 10.78 9.4732 10.8 10.3132 10.82C11.1732 10.84 12.0232 10.85 12.8632 10.85C13.8232 10.85 14.7532 10.84 15.6532 10.82C16.5532 10.8 17.1932 10.79 17.5732 10.79C20.3532 10.79 22.4332 11.34 23.8132 12.44C25.1932 13.54 25.8832 14.96 25.8832 16.7C25.8832 17.42 25.7432 18.18 25.4632 18.98C25.1832 19.76 24.7032 20.49 24.0232 21.17C23.3632 21.83 22.4532 22.37 21.2932 22.79C20.1332 23.21 18.6732 23.42 16.9132 23.42H13.8532V22.82H16.6132C17.7932 22.82 18.6832 22.55 19.2832 22.01C19.9032 21.47 20.3232 20.76 20.5432 19.88C20.7832 19 20.9032 18.05 20.9032 17.03C20.9032 15.13 20.6232 13.71 20.0632 12.77C19.5032 11.83 18.5432 11.36 17.1832 11.36C16.4032 11.36 15.8932 11.53 15.6532 11.87C15.4332 12.21 15.3232 12.9 15.3232 13.94V28.64C15.3232 29.42 15.4032 30 15.5632 30.38C15.7232 30.76 16.0332 31.01 16.4932 31.13C16.9532 31.25 17.6332 31.32 18.5332 31.34V32C17.9132 31.98 17.1132 31.96 16.1332 31.94C15.1532 31.92 14.1232 31.91 13.0432 31.91C12.1832 31.91 11.3432 31.92 10.5232 31.94C9.7032 31.96 8.9632 31.98 8.3032 32V31.4C8.9432 31.36 9.4232 31.28 9.7432 31.16C10.0632 31.04 10.2732 30.8 10.3732 30.44C10.4932 30.08 10.5532 29.54 10.5532 28.82V13.94C10.5532 13.2 10.4932 12.66 10.3732 12.32C10.2732 11.96 10.0532 11.72 9.7132 11.6C9.3932 11.46 8.9232 11.38 8.3032 11.36V10.76ZM38.8427 10.7L46.1327 29.48C46.4127 30.2 46.7227 30.7 47.0627 30.98C47.4227 31.24 47.7427 31.38 48.0227 31.4V32C47.4227 31.96 46.7127 31.94 45.8927 31.94C45.0927 31.92 44.2827 31.91 43.4627 31.91C42.5427 31.91 41.6727 31.92 40.8527 31.94C40.0327 31.94 39.3827 31.96 38.9027 32V31.4C39.9227 31.36 40.5627 31.19 40.8227 30.89C41.1027 30.57 41.0427 29.9 40.6427 28.88L35.5427 14.93L36.0827 14.15L31.5227 26.03C31.0827 27.13 30.8127 28.03 30.7127 28.73C30.6327 29.43 30.6827 29.97 30.8627 30.35C31.0627 30.73 31.3727 31 31.7927 31.16C32.2327 31.3 32.7527 31.38 33.3527 31.4V32C32.6927 31.96 32.0627 31.94 31.4627 31.94C30.8627 31.92 30.2527 31.91 29.6327 31.91C29.1927 31.91 28.7727 31.92 28.3727 31.94C27.9927 31.94 27.6527 31.96 27.3527 32V31.4C27.7727 31.32 28.2027 31.05 28.6427 30.59C29.0827 30.13 29.5127 29.35 29.9327 28.25L36.7727 10.7C37.0927 10.72 37.4327 10.73 37.7927 10.73C38.1727 10.73 38.5227 10.72 38.8427 10.7ZM40.9427 23.36V23.96H32.0027L32.3027 23.36H40.9427ZM60.5166 10.76V11.36C59.8766 11.38 59.3866 11.46 59.0466 11.6C58.7266 11.72 58.5166 11.96 58.4166 12.32C58.3166 12.66 58.2666 13.2 58.2666 13.94V28.82C58.2666 29.54 58.3166 30.08 58.4166 30.44C58.5366 30.8 58.7566 31.04 59.0766 31.16C59.3966 31.28 59.8766 31.36 60.5166 31.4V32C59.9766 31.96 59.2966 31.94 58.4766 31.94C57.6566 31.92 56.8266 31.91 55.9866 31.91C55.0066 31.91 54.0966 31.92 53.2566 31.94C52.4366 31.94 51.7666 31.96 51.2466 32V31.4C51.8866 31.36 52.3666 31.28 52.6866 31.16C53.0066 31.04 53.2166 30.8 53.3166 30.44C53.4366 30.08 53.4966 29.54 53.4966 28.82V13.94C53.4966 13.2 53.4366 12.66 53.3166 12.32C53.2166 11.96 52.9966 11.72 52.6566 11.6C52.3366 11.46 51.8666 11.38 51.2466 11.36V10.76C51.7666 10.78 52.4366 10.8 53.2566 10.82C54.0966 10.84 55.0066 10.85 55.9866 10.85C56.8266 10.85 57.6566 10.84 58.4766 10.82C59.2966 10.8 59.9766 10.78 60.5166 10.76ZM76.4215 10.34C77.7815 10.34 78.8915 10.53 79.7515 10.91C80.6115 11.29 81.3815 11.75 82.0615 12.29C82.3015 12.47 82.5015 12.56 82.6615 12.56C83.0415 12.56 83.2915 11.96 83.4115 10.76H84.1015C84.0615 11.54 84.0315 12.49 84.0115 13.61C83.9915 14.71 83.9815 16.18 83.9815 18.02H83.2915C83.1515 16.82 82.9315 15.78 82.6315 14.9C82.3515 14 81.8215 13.23 81.0415 12.59C80.5615 12.13 79.9615 11.77 79.2415 11.51C78.5415 11.25 77.8315 11.12 77.1115 11.12C76.0115 11.12 75.0715 11.41 74.2915 11.99C73.5115 12.55 72.8715 13.32 72.3715 14.3C71.8715 15.28 71.5015 16.39 71.2615 17.63C71.0215 18.85 70.9015 20.12 70.9015 21.44C70.9015 25.04 71.3915 27.67 72.3715 29.33C73.3715 30.99 74.8015 31.82 76.6615 31.82C77.1415 31.82 77.5615 31.76 77.9215 31.64C78.2815 31.52 78.5715 31.38 78.7915 31.22C79.0715 31.02 79.2615 30.81 79.3615 30.59C79.4615 30.35 79.5115 30.04 79.5115 29.66V26.72C79.5115 25.8 79.4315 25.12 79.2715 24.68C79.1315 24.22 78.8415 23.91 78.4015 23.75C77.9615 23.59 77.3215 23.5 76.4815 23.48V22.88C76.9015 22.9 77.4015 22.92 77.9815 22.94C78.5815 22.94 79.2015 22.95 79.8415 22.97C80.4815 22.97 81.0715 22.97 81.6115 22.97C82.4515 22.97 83.2215 22.96 83.9215 22.94C84.6215 22.92 85.1915 22.9 85.6315 22.88V23.48C85.2515 23.5 84.9615 23.57 84.7615 23.69C84.5815 23.81 84.4515 24.05 84.3715 24.41C84.3115 24.77 84.2815 25.32 84.2815 26.06V32H83.6815C83.6615 31.66 83.5815 31.29 83.4415 30.89C83.3215 30.49 83.1115 30.29 82.8115 30.29C82.6715 30.29 82.4815 30.33 82.2415 30.41C82.0215 30.47 81.6715 30.64 81.1915 30.92C80.4515 31.34 79.6715 31.7 78.8515 32C78.0315 32.28 77.1715 32.42 76.2715 32.42C73.9515 32.42 71.9915 31.99 70.3915 31.13C68.7915 30.27 67.5815 29.04 66.7615 27.44C65.9615 25.82 65.5615 23.88 65.5615 21.62C65.5615 19.34 66.0215 17.36 66.9415 15.68C67.8815 14 69.1615 12.69 70.7815 11.75C72.4215 10.81 74.3015 10.34 76.4215 10.34ZM106.402 10.76C106.322 11.64 106.262 12.49 106.222 13.31C106.202 14.13 106.192 14.76 106.192 15.2C106.192 15.6 106.202 15.98 106.222 16.34C106.242 16.7 106.262 17 106.282 17.24H105.592C105.392 15.78 105.082 14.63 104.662 13.79C104.242 12.93 103.692 12.33 103.012 11.99C102.352 11.63 101.572 11.45 100.672 11.45H99.442C98.862 11.45 98.422 11.5 98.122 11.6C97.822 11.7 97.622 11.9 97.522 12.2C97.422 12.5 97.372 12.96 97.372 13.58V29.18C97.372 29.8 97.422 30.26 97.522 30.56C97.622 30.86 97.822 31.06 98.122 31.16C98.422 31.26 98.862 31.31 99.442 31.31H100.912C101.812 31.31 102.602 31.12 103.282 30.74C103.982 30.34 104.572 29.67 105.052 28.73C105.552 27.79 105.932 26.52 106.192 24.92H106.882C106.822 25.56 106.792 26.4 106.792 27.44C106.792 27.9 106.802 28.55 106.822 29.39C106.842 30.23 106.902 31.1 107.002 32C105.982 31.96 104.832 31.94 103.552 31.94C102.272 31.92 101.132 31.91 100.132 31.91C99.632 31.91 98.992 31.91 98.212 31.91C97.432 31.91 96.592 31.92 95.692 31.94C94.792 31.94 93.882 31.95 92.962 31.97C92.042 31.97 91.172 31.98 90.352 32V31.4C90.992 31.36 91.472 31.28 91.792 31.16C92.112 31.04 92.322 30.8 92.422 30.44C92.542 30.08 92.602 29.54 92.602 28.82V13.94C92.602 13.2 92.542 12.66 92.422 12.32C92.322 11.96 92.102 11.72 91.762 11.6C91.442 11.46 90.972 11.38 90.352 11.36V10.76C91.172 10.78 92.042 10.8 92.962 10.82C93.882 10.82 94.792 10.83 95.692 10.85C96.592 10.85 97.432 10.85 98.212 10.85C98.992 10.85 99.632 10.85 100.132 10.85C101.052 10.85 102.092 10.85 103.252 10.85C104.432 10.83 105.482 10.8 106.402 10.76ZM101.722 21.02C101.722 21.02 101.722 21.12 101.722 21.32C101.722 21.52 101.722 21.62 101.722 21.62H96.472C96.472 21.62 96.472 21.52 96.472 21.32C96.472 21.12 96.472 21.02 96.472 21.02H101.722ZM102.592 17.06C102.512 18.2 102.472 19.07 102.472 19.67C102.492 20.27 102.502 20.82 102.502 21.32C102.502 21.82 102.512 22.37 102.532 22.97C102.552 23.57 102.602 24.44 102.682 25.58H101.992C101.892 24.88 101.702 24.23 101.422 23.63C101.162 23.03 100.782 22.55 100.282 22.19C99.782 21.81 99.132 21.62 98.332 21.62V21.02C98.932 21.02 99.442 20.9 99.862 20.66C100.282 20.4 100.622 20.07 100.882 19.67C101.162 19.25 101.382 18.81 101.542 18.35C101.702 17.89 101.822 17.46 101.902 17.06H102.592ZM148.168 10.76V11.36C147.528 11.38 147.048 11.46 146.728 11.6C146.408 11.72 146.188 11.96 146.068 12.32C145.968 12.66 145.918 13.2 145.918 13.94V28.82C145.918 29.54 145.968 30.08 146.068 30.44C146.188 30.8 146.408 31.04 146.728 31.16C147.048 31.28 147.528 31.36 148.168 31.4V32C147.608 31.96 146.898 31.94 146.038 31.94C145.198 31.92 144.338 31.91 143.458 31.91C142.498 31.91 141.598 31.92 140.758 31.94C139.918 31.94 139.238 31.96 138.718 32V31.4C139.398 31.36 139.908 31.28 140.248 31.16C140.608 31.04 140.848 30.8 140.968 30.44C141.088 30.08 141.148 29.54 141.148 28.82V12.59H141.358L133.918 32.03H133.438L125.338 12.71V27.08C125.338 28.18 125.398 29.03 125.518 29.63C125.638 30.21 125.898 30.63 126.298 30.89C126.718 31.13 127.368 31.3 128.248 31.4V32C127.868 31.96 127.368 31.94 126.748 31.94C126.128 31.92 125.548 31.91 125.008 31.91C124.548 31.91 124.078 31.92 123.598 31.94C123.118 31.94 122.718 31.96 122.398 32V31.4C123.038 31.3 123.518 31.13 123.838 30.89C124.158 30.65 124.368 30.26 124.468 29.72C124.588 29.16 124.648 28.4 124.648 27.44V13.94C124.648 13.2 124.588 12.66 124.468 12.32C124.368 11.96 124.148 11.72 123.808 11.6C123.488 11.46 123.018 11.38 122.398 11.36V10.76C122.718 10.78 123.118 10.8 123.598 10.82C124.078 10.84 124.548 10.85 125.008 10.85C125.868 10.85 126.708 10.84 127.528 10.82C128.368 10.8 129.108 10.78 129.748 10.76L136.048 25.97L135.298 26.66L141.328 10.85C141.668 10.85 142.018 10.85 142.378 10.85C142.738 10.85 143.098 10.85 143.458 10.85C144.338 10.85 145.198 10.84 146.038 10.82C146.898 10.8 147.608 10.78 148.168 10.76ZM163.19 10.7L170.48 29.48C170.76 30.2 171.07 30.7 171.41 30.98C171.77 31.24 172.09 31.38 172.37 31.4V32C171.77 31.96 171.06 31.94 170.24 31.94C169.44 31.92 168.63 31.91 167.81 31.91C166.89 31.91 166.02 31.92 165.2 31.94C164.38 31.94 163.73 31.96 163.25 32V31.4C164.27 31.36 164.91 31.19 165.17 30.89C165.45 30.57 165.39 29.9 164.99 28.88L159.89 14.93L160.43 14.15L155.87 26.03C155.43 27.13 155.16 28.03 155.06 28.73C154.98 29.43 155.03 29.97 155.21 30.35C155.41 30.73 155.72 31 156.14 31.16C156.58 31.3 157.1 31.38 157.7 31.4V32C157.04 31.96 156.41 31.94 155.81 31.94C155.21 31.92 154.6 31.91 153.98 31.91C153.54 31.91 153.12 31.92 152.72 31.94C152.34 31.94 152 31.96 151.7 32V31.4C152.12 31.32 152.55 31.05 152.99 30.59C153.43 30.13 153.86 29.35 154.28 28.25L161.12 10.7C161.44 10.72 161.78 10.73 162.14 10.73C162.52 10.73 162.87 10.72 163.19 10.7ZM165.29 23.36V23.96H156.35L156.65 23.36H165.29ZM175.594 10.76C176.094 10.78 176.764 10.8 177.604 10.82C178.464 10.84 179.314 10.85 180.154 10.85C181.114 10.85 182.044 10.84 182.944 10.82C183.844 10.8 184.484 10.79 184.864 10.79C186.724 10.79 188.264 11 189.484 11.42C190.724 11.82 191.644 12.41 192.244 13.19C192.864 13.97 193.174 14.91 193.174 16.01C193.174 16.69 193.034 17.38 192.754 18.08C192.474 18.76 191.994 19.4 191.314 20C190.654 20.58 189.744 21.05 188.584 21.41C187.424 21.75 185.964 21.92 184.204 21.92H181.324V21.32H183.904C185.084 21.32 185.974 21.1 186.574 20.66C187.194 20.2 187.614 19.6 187.834 18.86C188.074 18.1 188.194 17.26 188.194 16.34C188.194 14.76 187.914 13.54 187.354 12.68C186.794 11.8 185.834 11.36 184.474 11.36C183.694 11.36 183.184 11.53 182.944 11.87C182.724 12.21 182.614 12.9 182.614 13.94V28.82C182.614 29.54 182.664 30.08 182.764 30.44C182.884 30.8 183.104 31.04 183.424 31.16C183.744 31.28 184.224 31.36 184.864 31.4V32C184.324 31.96 183.644 31.94 182.824 31.94C182.004 31.92 181.174 31.91 180.334 31.91C179.374 31.91 178.464 31.92 177.604 31.94C176.764 31.94 176.094 31.96 175.594 32V31.4C176.234 31.36 176.714 31.28 177.034 31.16C177.354 31.04 177.564 30.8 177.664 30.44C177.784 30.08 177.844 29.54 177.844 28.82V13.94C177.844 13.2 177.784 12.66 177.664 12.32C177.564 11.96 177.344 11.72 177.004 11.6C176.684 11.46 176.214 11.38 175.594 11.36V10.76ZM181.264 21.41C182.124 21.43 182.864 21.47 183.484 21.53C184.124 21.59 184.684 21.65 185.164 21.71C185.644 21.75 186.074 21.78 186.454 21.8C188.274 21.96 189.614 22.35 190.474 22.97C191.354 23.59 191.924 24.52 192.184 25.76L192.874 28.85C193.054 29.65 193.244 30.21 193.444 30.53C193.644 30.85 193.934 31.01 194.314 31.01C194.574 30.99 194.784 30.93 194.944 30.83C195.124 30.71 195.314 30.54 195.514 30.32L195.934 30.68C195.394 31.3 194.814 31.74 194.194 32C193.574 32.28 192.824 32.42 191.944 32.42C190.864 32.42 189.974 32.19 189.274 31.73C188.574 31.27 188.114 30.42 187.894 29.18L187.354 26.18C187.214 25.34 187.044 24.61 186.844 23.99C186.644 23.35 186.364 22.85 186.004 22.49C185.664 22.11 185.184 21.92 184.564 21.92H181.324L181.264 21.41ZM208.636 10.76V11.36C207.996 11.38 207.506 11.46 207.166 11.6C206.846 11.72 206.636 11.96 206.536 12.32C206.436 12.66 206.386 13.2 206.386 13.94V28.82C206.386 29.54 206.436 30.08 206.536 30.44C206.656 30.8 206.876 31.04 207.196 31.16C207.516 31.28 207.996 31.36 208.636 31.4V32C208.096 31.96 207.416 31.94 206.596 31.94C205.776 31.92 204.946 31.91 204.106 31.91C203.126 31.91 202.216 31.92 201.376 31.94C200.556 31.94 199.886 31.96 199.366 32V31.4C200.006 31.36 200.486 31.28 200.806 31.16C201.126 31.04 201.336 30.8 201.436 30.44C201.556 30.08 201.616 29.54 201.616 28.82V13.94C201.616 13.2 201.556 12.66 201.436 12.32C201.336 11.96 201.116 11.72 200.776 11.6C200.456 11.46 199.986 11.38 199.366 11.36V10.76C199.886 10.78 200.556 10.8 201.376 10.82C202.216 10.84 203.126 10.85 204.106 10.85C204.946 10.85 205.776 10.84 206.596 10.82C207.416 10.8 208.096 10.78 208.636 10.76ZM232.755 10.76V11.36C232.115 11.44 231.625 11.61 231.285 11.87C230.965 12.11 230.755 12.5 230.655 13.04C230.555 13.58 230.505 14.34 230.505 15.32V23.27C230.505 24.57 230.415 25.76 230.235 26.84C230.055 27.92 229.735 28.85 229.275 29.63C228.755 30.49 227.995 31.17 226.995 31.67C225.995 32.17 224.725 32.42 223.185 32.42C222.265 32.42 221.325 32.31 220.365 32.09C219.405 31.89 218.545 31.5 217.785 30.92C217.145 30.38 216.655 29.77 216.315 29.09C215.975 28.41 215.745 27.61 215.625 26.69C215.505 25.75 215.445 24.64 215.445 23.36V13.94C215.445 13.2 215.385 12.66 215.265 12.32C215.165 11.96 214.955 11.72 214.635 11.6C214.315 11.46 213.835 11.38 213.195 11.36V10.76C213.695 10.78 214.365 10.8 215.205 10.82C216.065 10.84 216.955 10.85 217.875 10.85C218.795 10.85 219.675 10.84 220.515 10.82C221.375 10.8 222.085 10.78 222.645 10.76V11.36C221.965 11.38 221.445 11.46 221.085 11.6C220.745 11.72 220.515 11.96 220.395 12.32C220.275 12.66 220.215 13.2 220.215 13.94V25.25C220.215 26.25 220.275 27.14 220.395 27.92C220.535 28.68 220.755 29.32 221.055 29.84C221.375 30.34 221.805 30.72 222.345 30.98C222.885 31.24 223.555 31.37 224.355 31.37C225.755 31.37 226.845 31.04 227.625 30.38C228.425 29.72 228.985 28.81 229.305 27.65C229.645 26.47 229.815 25.12 229.815 23.6V15.68C229.815 14.58 229.745 13.74 229.605 13.16C229.465 12.56 229.185 12.13 228.765 11.87C228.365 11.61 227.745 11.44 226.905 11.36V10.76C227.285 10.78 227.785 10.8 228.405 10.82C229.025 10.84 229.605 10.85 230.145 10.85C230.625 10.85 231.095 10.84 231.555 10.82C232.035 10.8 232.435 10.78 232.755 10.76ZM248.043 10.34C249.363 10.34 250.443 10.54 251.283 10.94C252.143 11.32 252.903 11.77 253.563 12.29C253.963 12.59 254.263 12.63 254.463 12.41C254.683 12.17 254.833 11.62 254.913 10.76H255.603C255.563 11.54 255.533 12.49 255.513 13.61C255.493 14.71 255.483 16.18 255.483 18.02H254.793C254.693 17.1 254.563 16.32 254.403 15.68C254.243 15.02 254.023 14.44 253.743 13.94C253.463 13.44 253.063 12.99 252.543 12.59C252.043 12.09 251.463 11.72 250.803 11.48C250.143 11.24 249.453 11.12 248.733 11.12C247.653 11.12 246.733 11.41 245.973 11.99C245.213 12.55 244.593 13.32 244.113 14.3C243.653 15.28 243.313 16.39 243.093 17.63C242.873 18.85 242.763 20.12 242.763 21.44C242.763 22.78 242.873 24.07 243.093 25.31C243.333 26.53 243.693 27.62 244.173 28.58C244.673 29.54 245.313 30.3 246.093 30.86C246.873 31.42 247.793 31.7 248.853 31.7C249.513 31.7 250.173 31.58 250.833 31.34C251.513 31.08 252.093 30.71 252.573 30.23C253.353 29.63 253.883 28.89 254.163 28.01C254.443 27.11 254.653 25.92 254.793 24.44H255.483C255.483 26.34 255.493 27.88 255.513 29.06C255.533 30.22 255.563 31.2 255.603 32H254.913C254.833 31.14 254.693 30.6 254.493 30.38C254.313 30.16 254.003 30.19 253.563 30.47C252.823 30.99 252.033 31.45 251.193 31.85C250.373 32.23 249.313 32.42 248.013 32.42C245.893 32.42 244.033 31.99 242.433 31.13C240.853 30.27 239.623 29.03 238.743 27.41C237.863 25.79 237.423 23.84 237.423 21.56C237.423 19.32 237.873 17.36 238.773 15.68C239.693 14 240.943 12.69 242.523 11.75C244.123 10.81 245.963 10.34 248.043 10.34ZM272.195 10.34C273.515 10.34 274.595 10.54 275.435 10.94C276.295 11.32 277.055 11.77 277.715 12.29C278.115 12.59 278.415 12.63 278.615 12.41C278.835 12.17 278.985 11.62 279.065 10.76H279.755C279.715 11.54 279.685 12.49 279.665 13.61C279.645 14.71 279.635 16.18 279.635 18.02H278.945C278.845 17.1 278.715 16.32 278.555 15.68C278.395 15.02 278.175 14.44 277.895 13.94C277.615 13.44 277.215 12.99 276.695 12.59C276.195 12.09 275.615 11.72 274.955 11.48C274.295 11.24 273.605 11.12 272.885 11.12C271.805 11.12 270.885 11.41 270.125 11.99C269.365 12.55 268.745 13.32 268.265 14.3C267.805 15.28 267.465 16.39 267.245 17.63C267.025 18.85 266.915 20.12 266.915 21.44C266.915 22.78 267.025 24.07 267.245 25.31C267.485 26.53 267.845 27.62 268.325 28.58C268.825 29.54 269.465 30.3 270.245 30.86C271.025 31.42 271.945 31.7 273.005 31.7C273.665 31.7 274.325 31.58 274.985 31.34C275.665 31.08 276.245 30.71 276.725 30.23C277.505 29.63 278.035 28.89 278.315 28.01C278.595 27.11 278.805 25.92 278.945 24.44H279.635C279.635 26.34 279.645 27.88 279.665 29.06C279.685 30.22 279.715 31.2 279.755 32H279.065C278.985 31.14 278.845 30.6 278.645 30.38C278.465 30.16 278.155 30.19 277.715 30.47C276.975 30.99 276.185 31.45 275.345 31.85C274.525 32.23 273.465 32.42 272.165 32.42C270.045 32.42 268.185 31.99 266.585 31.13C265.005 30.27 263.775 29.03 262.895 27.41C262.015 25.79 261.575 23.84 261.575 21.56C261.575 19.32 262.025 17.36 262.925 15.68C263.845 14 265.095 12.69 266.675 11.75C268.275 10.81 270.115 10.34 272.195 10.34ZM294.728 10.76V11.36C294.088 11.38 293.598 11.46 293.257 11.6C292.938 11.72 292.728 11.96 292.628 12.32C292.528 12.66 292.478 13.2 292.478 13.94V28.82C292.478 29.54 292.528 30.08 292.628 30.44C292.748 30.8 292.968 31.04 293.288 31.16C293.608 31.28 294.088 31.36 294.728 31.4V32C294.188 31.96 293.508 31.94 292.688 31.94C291.868 31.92 291.038 31.91 290.198 31.91C289.218 31.91 288.308 31.92 287.468 31.94C286.648 31.94 285.978 31.96 285.458 32V31.4C286.098 31.36 286.578 31.28 286.898 31.16C287.218 31.04 287.428 30.8 287.528 30.44C287.648 30.08 287.708 29.54 287.708 28.82V13.94C287.708 13.2 287.648 12.66 287.528 12.32C287.428 11.96 287.208 11.72 286.868 11.6C286.548 11.46 286.078 11.38 285.458 11.36V10.76C285.978 10.78 286.648 10.8 287.468 10.82C288.308 10.84 289.218 10.85 290.198 10.85C291.038 10.85 291.868 10.84 292.688 10.82C293.508 10.8 294.188 10.78 294.728 10.76Z" fill="#143A52"/>
<path d="M103.827 48.06C105.347 48.06 106.661 48.3467 107.767 48.92C108.887 49.48 109.741 50.2867 110.327 51.34C110.927 52.3933 111.227 53.6333 111.227 55.06C111.227 56.4867 110.927 57.7267 110.327 58.78C109.741 59.82 108.887 60.62 107.767 61.18C106.661 61.7267 105.347 62 103.827 62H99.4873V48.06H103.827ZM103.827 60.5C105.627 60.5 107.001 60.0267 107.947 59.08C108.894 58.12 109.367 56.78 109.367 55.06C109.367 53.3267 108.887 51.9733 107.927 51C106.981 50.0267 105.614 49.54 103.827 49.54H101.307V60.5H103.827ZM117.448 49.54V54.2H122.528V55.7H117.448V60.5H123.128V62H115.628V48.04H123.128V49.54H117.448ZM132.302 62.14C131.382 62.14 130.555 61.98 129.822 61.66C129.102 61.3267 128.535 60.8733 128.122 60.3C127.708 59.7133 127.495 59.04 127.482 58.28H129.422C129.488 58.9333 129.755 59.4867 130.222 59.94C130.702 60.38 131.395 60.6 132.302 60.6C133.168 60.6 133.848 60.3867 134.342 59.96C134.848 59.52 135.102 58.96 135.102 58.28C135.102 57.7467 134.955 57.3133 134.662 56.98C134.368 56.6467 134.002 56.3933 133.562 56.22C133.122 56.0467 132.528 55.86 131.782 55.66C130.862 55.42 130.122 55.18 129.562 54.94C129.015 54.7 128.542 54.3267 128.142 53.82C127.755 53.3 127.562 52.6067 127.562 51.74C127.562 50.98 127.755 50.3067 128.142 49.72C128.528 49.1333 129.068 48.68 129.762 48.36C130.468 48.04 131.275 47.88 132.182 47.88C133.488 47.88 134.555 48.2067 135.382 48.86C136.222 49.5133 136.695 50.38 136.802 51.46H134.802C134.735 50.9267 134.455 50.46 133.962 50.06C133.468 49.6467 132.815 49.44 132.002 49.44C131.242 49.44 130.622 49.64 130.142 50.04C129.662 50.4267 129.422 50.9733 129.422 51.68C129.422 52.1867 129.562 52.6 129.842 52.92C130.135 53.24 130.488 53.4867 130.902 53.66C131.328 53.82 131.922 54.0067 132.682 54.22C133.602 54.4733 134.342 54.7267 134.902 54.98C135.462 55.22 135.942 55.6 136.342 56.12C136.742 56.6267 136.942 57.32 136.942 58.2C136.942 58.88 136.762 59.52 136.402 60.12C136.042 60.72 135.508 61.2067 134.802 61.58C134.095 61.9533 133.262 62.14 132.302 62.14ZM143.44 48.06V62H141.62V48.06H143.44ZM159.102 52.1C158.715 51.2867 158.155 50.66 157.422 50.22C156.689 49.7667 155.835 49.54 154.862 49.54C153.889 49.54 153.009 49.7667 152.222 50.22C151.449 50.66 150.835 51.3 150.382 52.14C149.942 52.9667 149.722 53.9267 149.722 55.02C149.722 56.1133 149.942 57.0733 150.382 57.9C150.835 58.7267 151.449 59.3667 152.222 59.82C153.009 60.26 153.889 60.48 154.862 60.48C156.222 60.48 157.342 60.0733 158.222 59.26C159.102 58.4467 159.615 57.3467 159.762 55.96H154.202V54.48H161.702V55.88C161.595 57.0267 161.235 58.08 160.622 59.04C160.009 59.9867 159.202 60.74 158.202 61.3C157.202 61.8467 156.089 62.12 154.862 62.12C153.569 62.12 152.389 61.82 151.322 61.22C150.255 60.6067 149.409 59.76 148.782 58.68C148.169 57.6 147.862 56.38 147.862 55.02C147.862 53.66 148.169 52.44 148.782 51.36C149.409 50.2667 150.255 49.42 151.322 48.82C152.389 48.2067 153.569 47.9 154.862 47.9C156.342 47.9 157.649 48.2667 158.782 49C159.929 49.7333 160.762 50.7667 161.282 52.1H159.102ZM177.068 62H175.248L167.928 50.9V62H166.108V48.04H167.928L175.248 59.12V48.04H177.068V62ZM183.991 49.54V54.2H189.071V55.7H183.991V60.5H189.671V62H182.171V48.04H189.671V49.54H183.991ZM201.765 62L198.445 56.3H196.245V62H194.425V48.06H198.925C199.978 48.06 200.865 48.24 201.585 48.6C202.318 48.96 202.865 49.4467 203.225 50.06C203.585 50.6733 203.765 51.3733 203.765 52.16C203.765 53.12 203.485 53.9667 202.925 54.7C202.378 55.4333 201.551 55.92 200.445 56.16L203.945 62H201.765ZM196.245 54.84H198.925C199.911 54.84 200.651 54.6 201.145 54.12C201.638 53.6267 201.885 52.9733 201.885 52.16C201.885 51.3333 201.638 50.6933 201.145 50.24C200.665 49.7867 199.925 49.56 198.925 49.56H196.245V54.84Z" fill="url(#paint0_linear_9_45)"/>
<defs>
<linearGradient id="paint0_linear_9_45" x1="151.5" y1="47" x2="151.5" y2="63" gradientUnits="userSpaceOnUse">
<stop stop-color="#143A52"/>
<stop offset="1" stop-color="#143A52" stop-opacity="0.5"/>
</linearGradient>
</defs>
</svg>
